<svg id="Component_3_1" data-name="Component 3 – 1" xmlns="http://www.w3.org/2000/svg" xmlns:xlink="http://www.w3.org/1999/xlink" width="400.31" height="155.029" viewBox="0 0 400.31 155.029">
  <defs>
    <clipPath id="clip-path">
      <rect id="Rectangle_39" data-name="Rectangle 39" width="399.858" height="154.985" fill="none"/>
    </clipPath>
  </defs>
  <rect id="Rectangle_40" data-name="Rectangle 40" width="399.858" height="154.985" transform="translate(0.142 0.044)" fill="#8dc63f"/>
  <g id="Group_127" data-name="Group 127">
    <g id="Group_126" data-name="Group 126" clip-path="url(#clip-path)">
      <g id="Group_125" data-name="Group 125" transform="translate(-29.076 -24.524)">
        <path id="Path_2546" data-name="Path 2546" d="M9.5,113.071c-.66-3.731,3.89-9.654,6.368-11.82a32.674,32.674,0,0,1,5.317-3.579,79.848,79.848,0,0,1,11.265-5.25,123,123,0,0,1,20.77-5.847A208.192,208.192,0,0,1,101.4,83.56c32.384,1.249,64.346,7.017,96.537,10.33,31.822,3.275,63.559,3.471,94.918-3.5a408.281,408.281,0,0,0,88.239-30.234c14.857-7.179,28.37-16.762,43.169-23.95,8.491-4.122,19.236-8.357,28.842-6.534,4.824.914,9.438,3.342,14.131,4.786.156.048.223-.2.069-.246-9.463-2.895-16.041-6.228-26.135-4.3-14.251,2.722-26.389,11.381-38.661,18.579-32,18.766-68,31.589-103.983,40.333-37.2,9.04-74.419,7.98-112.158,3.538C150.849,88.176,115.09,81.638,79.19,83.3c-16.857.78-34.13,3.436-49.739,10.076-7.758,3.3-22.045,9.233-20.187,19.769.027.158.273.092.243-.069Z" transform="translate(-9.1 -29.237)" fill="#8dc63f"/>
        <path id="Path_2547" data-name="Path 2547" d="M9.839,117.708C8.75,111,16.4,105.262,21.256,102.309a76.355,76.355,0,0,1,8.491-4.37A118.181,118.181,0,0,1,54.01,90.348a203.312,203.312,0,0,1,49.044-3.434c33.283,1.249,65.7,9.31,98.693,13.11,30.925,3.567,63.266,4.266,93-6.035,6.961-2.41,13.889-4.9,20.951-7.007,7.332-2.189,15.209-3.053,22.393-5.592,13.2-4.661,26.416-11.891,39.206-17.7,15.088-6.855,28.853-15.366,43.287-23.38,8.809-4.888,19.08-9.764,29.379-9.87,6.035-.06,11.912,2.83,17.612,4.653.154.05.221-.2.067-.243-11.03-3.538-18.183-5.9-29.747-2.483-14.589,4.308-26.83,13.9-40.051,21.032-15.633,8.44-32.32,14.4-48.307,22.046-15.877,7.593-33.027,10.692-49.689,16.485-73.06,25.388-145.012-8.992-219.079-5.2a147.77,147.77,0,0,0-48.147,9.7c-8.3,3.392-24.878,9.949-23.028,21.351C9.62,117.935,9.864,117.869,9.839,117.708Z" transform="translate(-8.718 -27.938)" fill="#91c73e"/>
        <path id="Path_2548" data-name="Path 2548" d="M10.167,122.291c-.968-6.584,6.264-12.278,11.03-15.343a76.469,76.469,0,0,1,8.2-4.487,116.678,116.678,0,0,1,25.24-8.44,193.219,193.219,0,0,1,48.49-3.9c34.153,1.176,66.833,11.824,100.576,16,28.782,3.569,60.413,4.928,87.471-6.923a219.257,219.257,0,0,1,24.611-9.758c7.989-2.4,16.9-1.9,24.611-4.786,4.345-1.625,7.623-5.1,11.527-7.477a173.211,173.211,0,0,1,20.285-9.558A496.9,496.9,0,0,0,420.014,42.8C428.869,37.7,438.5,32.9,448.8,31.815c6.741-.708,12.782,1.763,19.128,3.885.156.052.221-.194.069-.243-11.7-3.91-19-5.3-31.009-1.051-14.42,5.094-26.491,14.775-40.039,21.6-15.357,7.747-32.957,12.762-47.279,22.333-4.114,2.749-6.451,4.757-11.575,6.083-4,1.04-7.746,1.446-11.765,2.168a119.687,119.687,0,0,0-24.28,7.533c-8.175,3.371-16.025,7.543-24.572,9.951a133.185,133.185,0,0,1-31.852,3.835,283.84,283.84,0,0,1-58.529-4.541c-35.45-6.309-69.761-15.522-106.116-13.224C64.374,91.187,47.509,94.188,32.2,100.9c-8.183,3.592-23.912,10.288-22.268,21.455.023.16.266.092.243-.067Z" transform="translate(-8.327 -26.583)" fill="#94c93c"/>
        <path id="Path_2549" data-name="Path 2549" d="M10.514,126.984c-.874-6.659,6.006-12.242,10.749-15.4a79.254,79.254,0,0,1,9.842-5.529,122.123,122.123,0,0,1,26.2-8.8,183.592,183.592,0,0,1,51.47-3.6c33.564,2.206,65.228,15.079,98.53,19.057a242.208,242.208,0,0,0,49.97.859c13.989-1.249,25.057-6.081,37.344-12.561a113.465,113.465,0,0,1,24.765-9.989c7.2-1.833,15.04-.624,22.008-2.67a22.632,22.632,0,0,0,8.551-5.731,80.7,80.7,0,0,1,20.512-12.459,482.4,482.4,0,0,0,49.071-24.795c8.189-4.9,17.023-9.768,26.447-11.766,8-1.7,14.809.158,22.305,2.77.154.054.221-.191.069-.243-12.252-4.268-19.833-4.553-32.257.416C421.4,42.424,409.016,52.61,394.671,59.19c-13.687,6.278-30.7,10.917-42.378,20.76-3.873,3.263-6.035,6.1-11.111,7.687-4.37,1.363-8.6.916-13.086,1.438a86.147,86.147,0,0,0-24.191,7.09c-6.408,2.8-12.316,6.5-18.591,9.547a83.6,83.6,0,0,1-32.049,7.92,247.388,247.388,0,0,1-58.752-3.019c-35.1-6.058-68.2-18.548-104.328-17.5C71.663,93.655,52.7,96.5,35.543,103.769,26.834,107.452,8.689,115,10.26,126.984,10.283,127.142,10.534,127.144,10.514,126.984Z" transform="translate(-7.949 -25.302)" fill="#98ca3b"/>
        <path id="Path_2550" data-name="Path 2550" d="M10.852,131.741c-.832-7.136,6.732-12.887,11.654-16.2a82.116,82.116,0,0,1,8.2-4.826,115.874,115.874,0,0,1,25.421-9.333A164.288,164.288,0,0,1,110.65,97.2c33.021,3.138,63.547,17.748,96.424,21.85a205.77,205.77,0,0,0,51.549.533c14.568-1.914,25.182-9.173,37.622-16.306a91.127,91.127,0,0,1,23.065-9.549c7.748-1.939,15.327-.185,22.849-1.552a16.087,16.087,0,0,0,9.388-6.049,57.361,57.361,0,0,1,18.842-14c16.593-8.076,32.977-14.359,48.711-24.1,15.7-9.714,31.26-17.495,49.531-10.879.156.054.221-.189.071-.243-11.979-4.337-19.939-3.827-31.841,1.269-16.166,6.923-29.9,17.963-46.2,24.782-12.861,5.394-28.216,10.157-37.627,20.891-7.7,8.784-15.548,6.975-25.748,8.116a73.293,73.293,0,0,0-19.115,5.167c-18.557,7.491-32.23,20.522-52.994,22.56a218.439,218.439,0,0,1-60.725-2.834c-35.246-6.547-67.609-21.7-104.164-20.366A149.946,149.946,0,0,0,38,107.021c-9.182,3.841-28.865,12.107-27.408,24.72.017.16.271.162.252,0Z" transform="translate(-7.567 -24.128)" fill="#9ccb39"/>
        <path id="Path_2551" data-name="Path 2551" d="M11.172,136.464c-.262-4.045,4.859-10.838,7.59-13.449a44.825,44.825,0,0,1,6.143-4.447,84.767,84.767,0,0,1,9.606-5.471,121.462,121.462,0,0,1,25.479-8.948,147.146,147.146,0,0,1,57.023-2.682c31.425,5.14,59.9,20.489,91.721,24.2a186.347,186.347,0,0,0,47.373.208c14.951-2.152,25.454-10.2,37.793-18.192a84.817,84.817,0,0,1,23.856-10.915,52.492,52.492,0,0,1,14.316-2.108c3.981.052,8.141,1.536,12.12.941a14,14,0,0,0,8.385-4.69c4.943-5.134,7.492-9.812,13.943-13.828C382.337,67.2,400.43,62.515,416.1,52.36c16.025-10.39,33.46-21.758,52.881-14.471.152.056.208-.187.067-.243-12.183-4.578-21.375-2.662-33.013,2.851a190.131,190.131,0,0,0-21.373,12.486c-9.438,6.089-19.562,9.83-29.864,14.167-11.546,4.859-22.747,10.48-30.031,20.589-6.936,9.627-19.042,5.775-29.009,7.1a72.175,72.175,0,0,0-20.536,6.243c-16.609,7.648-28.807,21.124-47.524,24.3-20.162,3.419-42.646,1.738-62.606-2.064-33.681-6.416-64.248-23.931-99.228-23.69a148.146,148.146,0,0,0-55.478,10.53c-10.062,4.206-30.326,12.983-29.469,26.314,0,.16.264.162.254,0Z" transform="translate(-7.167 -22.92)" fill="#a0cc38"/>
        <path id="Path_2552" data-name="Path 2552" d="M11.507,141.267c-.208-4.02,4.618-10.667,7.284-13.356a45.03,45.03,0,0,1,5.9-4.545,84.483,84.483,0,0,1,9.251-5.656,117.069,117.069,0,0,1,26.43-9.93c18.718-4.718,38.879-6.274,57.878-2.347,30.957,6.4,58.165,23.049,89.944,26.744C223.86,134,241.163,135,256.7,131.7c15.588-3.311,25.837-13.678,38.769-22.116a75.665,75.665,0,0,1,23.981-10.538,51.356,51.356,0,0,1,14.3-1.554c4.079.229,8.393,2.071,12.528,1.609,9.989-1.117,12.453-13.387,19.479-18.749,15.608-11.9,35.2-15.434,51.462-26.189C432.54,44.03,450.463,31.382,469.326,38.7c.154.058.219-.185.069-.243-12.5-4.853-22.584-1.5-34.116,4.455a218.209,218.209,0,0,0-19.46,11.874c-9.33,6.126-19.431,9.45-29.658,13.653a103.308,103.308,0,0,0-20.534,11.693c-5.24,3.715-5.6,6.062-9.078,11.345-6.379,9.683-20.765,4.888-30.692,6.12a68.681,68.681,0,0,0-20.6,6.212c-16.732,7.866-28.607,22.872-47.1,27.279-19.413,4.63-42.48,2.682-61.894-.955C161.895,123.7,131.65,102.829,95.9,103a141.484,141.484,0,0,0-53.318,10.369c-10.472,4.37-32.01,13.992-31.319,27.9,0,.16.26.162.254,0Z" transform="translate(-6.782 -21.78)" fill="#a3ce37"/>
        <path id="Path_2553" data-name="Path 2553" d="M11.849,146.086c-.237-6.867,6.533-13.11,11.5-16.991a86.885,86.885,0,0,1,10.029-6.765,111.526,111.526,0,0,1,25.631-10.54c18.42-5.167,38.526-7.156,57.324-2.928,16.768,3.771,32.026,11.653,47.73,18.335a155.39,155.39,0,0,0,43.541,11.564c15.427,1.754,32.69,2.834,47.882-1.053,14.052-3.594,23.6-12.887,34.769-21.478a79.732,79.732,0,0,1,24.447-13.11c10.676-3.407,19.336-2.025,30.026-.774,13.342,1.561,13.454-10.931,20.67-18.564,13.765-14.567,35.552-16.148,51.7-26.957,15.026-10.053,33.727-24.834,52.573-17.282.152.06.208-.183.067-.243-12.183-4.882-22.7-.649-33.677,5.309C428.6,48.66,421.746,53.6,414.634,58.2c-9.521,6.158-20.445,8.336-30.613,13.018a81.8,81.8,0,0,0-16.489,10.515,22.934,22.934,0,0,0-4.947,4.674c-2.468,3.558-2.77,9.348-6.514,12.1-5.115,3.758-14.674,2.247-20.655,1.629a42.708,42.708,0,0,0-9.477.187,69.1,69.1,0,0,0-22.1,6.938c-16.424,8.116-27.7,23.692-45.466,29.377-19.084,6.1-43.287,3.708-62.675.094-34.547-6.451-63.77-30.292-99.767-30.4a132.253,132.253,0,0,0-52.731,10.8c-10.687,4.68-32.083,14.873-31.6,28.954a.127.127,0,0,0,.254,0Z" transform="translate(-6.404 -20.665)" fill="#a7cf35"/>
        <path id="Path_2554" data-name="Path 2554" d="M12.2,150.93c-.348-18.664,33.231-31.489,47.089-35.584,19.307-5.712,40.086-7.558,59.582-1.817,17.519,5.157,32.8,15.037,49.474,22.141a138.058,138.058,0,0,0,41.726,10.059c15.238,1.384,32.3,2.289,46.95-2.982,15.132-5.438,24.62-17.932,37.46-26.886a74.852,74.852,0,0,1,23.515-10.948c10.843-2.865,18.476-.876,29.069.895,9.654,1.613,13.257-5.762,16.628-13.372,9.194-20.755,33.851-20.576,50.9-31.287,15.737-9.887,35.541-28.971,55.453-20.749.152.062.208-.183.069-.243-13-5.369-24.973,1.174-36.153,7.866-7.636,4.578-14.6,10.359-22.391,14.635-9.228,5.061-19.958,6.411-29.233,11.368-5.394,2.884-13.638,8.005-17.044,13.168-6.112,9.271-3.14,21.088-20.928,17.688-14.347-2.745-26.208-1.792-39.691,4.736-16.818,8.143-27.762,24.545-45,31.749-18.836,7.87-43.079,5.783-62.775,2.381-34.917-6.035-63.168-32.756-99.115-34a122.272,122.272,0,0,0-54.051,11.121c-10.961,5.023-32.049,15.834-31.785,30.064a.127.127,0,0,0,.252,0Z" transform="translate(-6.032 -19.572)" fill="#abd034"/>
        <path id="Path_2555" data-name="Path 2555" d="M12.528,155.783c-.05-18.858,32.515-32.427,46.969-36.918,19.146-5.952,39.579-7.791,58.823-1.336,17.667,5.924,32.465,17.262,49.352,24.763a128.956,128.956,0,0,0,41.662,10.091c15.65,1.319,32.925,1.944,47.637-4.443,15.4-6.684,24.973-20.841,38.6-30.08a71.687,71.687,0,0,1,24.027-10.59c11.03-2.5,18.73-.112,29.344,1.969,9.817,1.927,14.4-5.766,17.065-14.04,7.015-21.879,31.537-21.415,48.453-31.316,15.893-9.3,35.776-31.2,55.926-22.637.15.062.279-.154.129-.208-11.708-4.973-22.772.976-32.84,6.969-7.1,4.229-13.613,9.275-20.5,13.813-9.4,6.193-20.326,7.348-30.341,11.995a48.622,48.622,0,0,0-17.411,13.174c-4.1,5.336-3.49,14.619-9.107,18.866-3.361,2.541-11.875,2.684-15.66,1.825-1.873-.416-3.623-1.186-5.523-1.554a39.324,39.324,0,0,0-8.866-.624A62.23,62.23,0,0,0,309,110.443c-17.825,7.319-28.151,22.524-43.8,32.8-18.8,12.342-44.507,10.925-65.865,7.739-18.784-2.8-35-10.113-51.354-19.482-14.489-8.3-29.685-16.283-46.563-18.031-19.2-1.987-39.922,2.807-57.212,11.1C33,129.937,12.255,141.291,12.3,155.779a.127.127,0,0,0,.252,0Z" transform="translate(-5.645 -18.487)" fill="#aed132"/>
        <path id="Path_2556" data-name="Path 2556" d="M12.883,160.641c.146-10.6,12.2-19.663,20.033-25.2a99.812,99.812,0,0,1,26.744-13.11c19.889-6.474,40.5-7.822,60.088.185,16.4,6.7,29.874,18.389,45.785,25.941A121.791,121.791,0,0,0,208.641,159.1c15.117,1.149,31.292,1.484,45.41-4.822,16.312-7.283,25.885-22.757,40.218-32.769a75.234,75.234,0,0,1,23.883-11.081c11.538-3.013,20.029-1.249,31.061,1.873,9.958,2.816,15.429-3.024,18.43-12.022,3.142-9.433,6.106-15.874,14.915-21.688,9.3-6.137,20.462-6.59,30.3-11.327,16.9-8.134,36.965-34.25,57.868-25.13.148.065.277-.154.127-.208-12.487-5.45-25.1,3.007-35.254,9.608-7.719,5.019-14.813,11.46-23.119,15.455-9.232,4.441-19.85,5.071-28.657,10.528-4.932,3.055-11.342,8.057-14.027,13.283a33.47,33.47,0,0,0-1.432,6.024c-.4,1.521-.793,3.057-1.324,4.539-2.345,6.526-4,8.047-11.167,9.431-7.461,1.44-9.781-.647-16.562-1.9a42.282,42.282,0,0,0-10.453-.541,64.981,64.981,0,0,0-21.294,5.475c-18.2,7.849-28.374,23.931-44.188,34.9-17.839,12.375-40.827,11.926-61.566,9.456-20.586-2.47-37.91-10.051-55.22-21.151-13.914-8.919-28.511-17.759-45.212-20.017-18.984-2.568-39.86,2.687-56.8,11.191-11.477,5.762-31.741,17.769-31.941,32.43a.127.127,0,0,0,.252,0Z" transform="translate(-5.28 -17.411)" fill="#b2d331"/>
        <path id="Path_2557" data-name="Path 2557" d="M13.233,165.514c.579-19.022,29.885-33.834,44.973-39.228,20.988-7.491,42.59-8.546,62.883,1.407,15.531,7.608,28.026,20.094,43.577,27.629a115.139,115.139,0,0,0,41.589,10.361c15.558,1.19,31.943,1.311,46.259-5.7,14.547-7.127,23.531-20.614,35.552-30.929,14.811-12.713,37.618-22.341,57.066-15.761,10.676,3.613,18.817,5.589,23.833-6.753a105.373,105.373,0,0,0,2.753-10.8,29.8,29.8,0,0,1,9.89-13.867c9.671-8.193,21.723-7.56,32.576-12.8,16.266-7.851,36.7-35.1,56.912-26.051.15.065.277-.152.129-.208-12.695-5.679-26.27,4.578-36.157,11.427-7.86,5.438-15.29,12.633-24.37,15.98-9,3.315-18.707,3.858-26.757,9.512-3.992,2.805-9.973,8.143-11.889,12.9-4.553,11.3-1.426,28.426-22.561,22.173-15.456-4.578-28.241-4.43-43.329,2.433-16.607,7.554-26.443,21.226-39.737,32.985-18.358,16.242-42.039,17.326-65.347,14.746a113.262,113.262,0,0,1-54.685-21.328c-14.272-10.157-29.03-20.735-46.844-23.246-18.817-2.653-39.562,3.182-56.026,12.153-11.411,6.216-30.1,18.431-30.545,32.966a.127.127,0,0,0,.254,0Z" transform="translate(-4.908 -16.346)" fill="#b6d430"/>
        <path id="Path_2558" data-name="Path 2558" d="M13.576,170.394c1.615-20.6,30.948-36.144,47.866-41.813,22.06-7.392,42.936-6.37,62.9,5.987,13.54,8.382,24.53,20.393,38.9,27.506a112.179,112.179,0,0,0,43.1,10.4c15.816.961,31.779.416,45.9-7.527,15.028-8.449,24.016-23.723,37.2-34.386,17.5-14.165,40.007-20.618,61.331-12.357,9.3,3.606,16.3,1.973,20.337-7.737,3.759-9.033,2.6-17.382,9.925-25.038,9.8-10.245,22.561-8.959,34.449-14.538,15.694-7.36,36.445-35.948,55.982-26.984.146.067.277-.15.127-.208-12.868-5.9-27.429,6.278-37.017,13.289-8.491,6.207-15.662,12.948-25.993,15.992-8,2.358-16.276,2.953-23.161,8.116-4.541,3.407-9.521,8.871-11.238,14.3-1.018,3.209-.922,6.9-1.794,10.2a31.56,31.56,0,0,1-2.533,7.038c-3.89,7.186-13.615,7.377-20.276,4.757-14.014-5.51-28.139-3.929-41.905,1.958-18.522,7.92-28.907,22.995-43.231,36.24-17.327,16.023-38.857,18.254-61.487,16.4-21.019-1.725-39.749-8.207-56.457-21.136-13.627-10.536-26.894-22.023-44.076-26.143-18.543-4.445-39.4,1.259-55.913,9.939-12.8,6.726-31.943,19.927-33.181,35.742-.015.162.239.162.252,0Z" transform="translate(-4.533 -15.29)" fill="#b9d52e"/>
        <path id="Path_2559" data-name="Path 2559" d="M13.923,175.273c1.956-21.1,29.918-37.249,47.524-43.4,22.605-7.889,43.835-5.608,63.3,8.532,13.18,9.572,23.673,22.187,38.59,29.292,14.254,6.786,30.176,9.21,45.83,9.662,15.608.449,30.678-1.457,43.885-10.4,15.336-10.367,24.466-27.375,39.541-38.113,16.9-12.047,38.763-18.35,58.479-9.989,9.573,4.06,17.619,4.391,21.866-6.547,2.87-7.389,2.015-15.815,5.964-22.843,8.019-14.242,23.017-13.018,36.211-18.119,7.727-2.988,13.954-9.4,20.451-14.334,9.08-6.9,24.106-19.906,36.259-14.2.148.069.275-.15.129-.208-12.99-6.1-28.488,8.022-37.791,15.191-8.324,6.4-15.375,12.858-25.989,15.258-8.668,1.958-17.065,3.148-23.856,9.364-14.05,12.873-4.814,47.812-34.405,35.626-13.7-5.646-28.3-3.7-41.751,1.894-17.594,7.312-28.565,20.616-41.171,34.269-16.876,18.279-36.954,23.966-61.345,22.768-22.083-1.084-42.713-6.867-59.922-21.134-12.92-10.711-24.47-22.7-40.732-28.374-19.1-6.659-41.16-.732-58.338,8.671-13.132,7.169-31.494,21.02-32.988,37.135-.015.164.239.162.254,0Z" transform="translate(-4.16 -14.234)" fill="#bdd62d"/>
        <path id="Path_2560" data-name="Path 2560" d="M14.269,180.148c2.312-21.579,28.9-38.473,47.183-45.017,23.9-8.559,45.576-4.193,64.592,12.357,12.279,10.675,22.185,23.051,37.348,29.88,14.661,6.6,31.131,8.63,47.081,8.69,15.735.062,30.611-3.506,43.192-13.364,15.348-12.032,24.672-29.939,41.254-40.7A79.293,79.293,0,0,1,321.484,120.8c13.126-2.766,22.1.092,34.109,4.751,9.966,3.866,17.126.664,20.357-9.622,2.485-7.908,1.488-16.648,5.64-24.035,8.325-14.818,23.429-11.476,36.513-17.37C424.593,71.614,429.935,66,435.431,61.6c8.583-6.857,24.686-21.69,36.75-15.9.146.071.275-.148.127-.208-11.844-5.683-26.222,7.425-34.665,14.044-8.376,6.561-15.731,14.2-26.38,16.81-9.215,2.258-18.17,2.547-25.344,9.5-12.264,11.893-4.054,48.191-30.126,39.361-7.234-2.449-13.061-5.681-20.98-5.912a64.1,64.1,0,0,0-25.15,4.83c-18.131,7.14-29.845,20.16-42.322,34.567-16.476,19.026-35.213,27.731-60.523,27.065-22.516-.589-44.7-5.669-62.017-20.774-13.084-11.424-23.741-24.842-40.343-31.489-18.9-7.571-40.653-1.629-57.705,8.06-13.477,7.656-30.971,22.116-32.738,38.593-.017.162.235.16.254,0Z" transform="translate(-3.786 -13.172)" fill="#c1d72b"/>
        <path id="Path_2561" data-name="Path 2561" d="M14.613,185.045c2.691-22.071,27.714-39.734,46.794-46.7,25.413-9.285,47.075-2.218,65.518,16.677,11.182,11.464,20.5,23.067,35.587,29.5,15.234,6.493,32.784,8.392,49.221,8.172a63.423,63.423,0,0,0,40.08-14.49c15.908-13.081,25.408-32.09,43.015-43.442A79.887,79.887,0,0,1,321.578,123.6c13.5-2.816,23.467-.094,35.766,5.333,10.587,4.67,18.02.483,21.209-10.224,2.268-7.614,1.276-15.936,4.214-23.319,6.483-16.286,21.467-13.626,34.994-18.462,6.82-2.437,11.981-7.974,17.425-12.544,8.3-6.963,25.292-23.69,37.358-17.776.148.071.275-.146.129-.208-12.326-6.035-28.076,9.83-36.542,16.87-8.612,7.161-15.5,13.383-27,15.337-8.741,1.484-16.793,2.784-22.722,9.964a26.028,26.028,0,0,0-5.571,13.162c-.681,4.468-.776,8.99-1.688,13.433a41.252,41.252,0,0,1-1.153,4.638c-2.5,7.543-9.119,11.218-17.338,10.236-4.578-.547-9.467-4.913-14.181-6.291a44.955,44.955,0,0,0-11.494-1.723,66.716,66.716,0,0,0-26.711,5.46c-17.515,7.194-29.231,19.85-41.1,34.128-15.715,18.92-33.4,31.239-58.862,30.8-21.783-.368-45.348-3.887-62.569-18.358-14.4-12.1-24.141-28.347-41.816-36.437-18.624-8.532-40.232-2.634-57.141,7.327C32.937,153.1,16.42,168.191,14.364,185.04c-.019.16.233.16.254,0Z" transform="translate(-3.41 -12.132)" fill="#c4d92a"/>
        <path id="Path_2562" data-name="Path 2562" d="M14.953,189.97c2.705-19.8,21.835-36.972,38.836-45.234,11.9-5.785,26.43-9.955,39.61-6.505,11.885,3.121,21.868,11.135,29.968,20.094,11.057,12.244,19.841,25.163,35.258,32.255,15.059,6.934,32.58,8.959,49.012,8.775a65.053,65.053,0,0,0,42.3-15.682c16.087-13.761,25.6-33.458,43.566-45.331,18.624-12.307,41.781-17.9,62.456-7.749,9.821,4.815,19.146,6.428,24.058-5.423,2.812-6.788,2.643-14.359,3.4-21.515.807-7.6,4.112-14.843,10.876-19.016,6.112-3.771,12.988-3.275,19.721-4.678,8.635-1.794,13.477-6.17,19.925-11.847,7.942-6.994,26.744-26.711,38.961-20.6.144.073.273-.146.127-.208-12.595-6.3-29.9,12.417-38.228,19.723a116.367,116.367,0,0,1-9.413,8.039c-5.827,4.1-11.654,4.5-18.405,5.556-7.577,1.184-14.135,3.092-18.924,9.45-11.186,14.852,1.109,56.125-31.974,40.314-15.221-7.283-30.615-6.767-46.334-.7-18.557,7.165-31.084,20.229-43.316,35.441-15.1,18.783-31.943,33.139-57.185,33.976-21.371.708-45.6-2.826-62.918-16.256-15.506-12.024-24.153-30.679-41.822-40.346C72.5,124.99,19.665,153.741,14.71,189.9c-.021.158.223.227.243.067Z" transform="translate(-3.036 -11.085)" fill="#c8da29"/>
        <path id="Path_2563" data-name="Path 2563" d="M15.3,194.842c3.19-20.959,21.467-38.9,39.866-47.654,12.123-5.77,26.266-9.083,39.333-4.632,11.623,3.954,20.8,13.07,28.222,22.485,9.679,12.278,17.873,24.655,32.328,31.77,15.14,7.452,33.379,9.649,50.086,9.192a66.54,66.54,0,0,0,42.892-16.887c15.488-13.753,24.78-33.125,41.712-45.483,17.9-13.056,44.228-21.835,65.278-11.237,10.339,5.2,21.329,10.222,27.277-3.367,2.936-6.713,2.914-14.34,3.382-21.5.416-6.5,1.378-12.889,5.912-17.973,6.451-7.231,15.161-6.4,23.756-7.9,8.1-1.407,12.678-5.352,18.522-10.727,7.85-7.2,27.152-28.748,39.385-22.512.146.075.273-.144.129-.208-12.243-6.243-29.922,13.616-37.668,20.689-3.444,3.146-7,7.142-11.049,9.539-6.143,3.64-13.1,2.913-19.793,4.124-7.2,1.311-13.019,4.655-16.516,11.273-3.04,5.76-2.757,11.959-3.163,18.267a57.1,57.1,0,0,1-2.325,14.637,20.7,20.7,0,0,1-4.408,7.839c-7.835,7.337-15.319,1.935-22.039-1.665-15.059-8.064-32.719-6.087-48.1.133-19.25,7.787-31.841,21.756-44.39,37.753-14.892,18.993-31.953,33.751-57.231,34.9-21.092.959-45.185-2.476-62.244-15.83-15.242-11.963-22.661-31.054-39.05-41.958-33.235-22.135-84.714,9.828-90.352,46.863-.025.158.221.227.243.067Z" transform="translate(-2.662 -10.022)" fill="#ccdb27"/>
        <path id="Path_2564" data-name="Path 2564" d="M15.647,199.732c3.617-21.573,20.106-40.14,39.423-49.425,13.706-6.586,28.928-9.327,42.9-1.817,10.551,5.673,18.068,14.923,24.684,24.641,9.157,13.451,17.846,25.388,33.221,32.1,15.544,6.79,34.6,8.771,51.349,6.986a68.8,68.8,0,0,0,41.063-19.746c15.839-15.518,25.629-35.942,44.644-48.345,18.82-12.278,44.265-19.145,65.052-7.766,10.67,5.839,21.425,8.915,27.027-4.6,2.914-7.044,2.834-15,3.078-22.474.231-7.146.7-15.418,6.951-20.3,6.489-5.069,14.056-4.512,21.671-5.641,8.716-1.292,13.386-5.983,19.488-11.807,7.246-6.913,25.989-28.157,37.431-22.216.144.075.273-.144.127-.208-12.089-6.278-30.384,15.249-37.737,22.266a62.033,62.033,0,0,1-10.043,8.921c-6.079,3.619-13.084,2.555-19.717,3.7-7.284,1.249-12.872,4.487-16.1,11.372-2.768,5.91-2.179,12.107-2.422,18.421a62.01,62.01,0,0,1-1.846,14.556c-.932,3.278-2.308,7.714-5.161,9.874l-12.539,2.928a36.738,36.738,0,0,1-8.843-4.251c-15.673-8.553-32.653-7.972-49.187-1.75-17.856,6.721-31.04,18.618-42.663,33.47-15.731,20.1-30.49,38.914-57.326,42.934-21.375,3.2-47.464-.023-65.41-12.823-16.532-11.793-22.93-32.5-38.721-45.1-34.2-27.285-84.3,8.245-90.641,46.047-.027.158.208.227.243.067Z" transform="translate(-2.289 -8.985)" fill="#d0dc26"/>
        <path id="Path_2565" data-name="Path 2565" d="M15.992,204.617a71.628,71.628,0,0,1,44.99-53.907C89.7,140,108.375,158.8,122.233,181.57c8.235,13.526,17.153,24.624,32.139,30.9a101.668,101.668,0,0,0,53.2,5.86c17.138-2.768,31.6-12,42.913-24.959,14.674-16.81,25.182-36.246,44.89-48.039,19.916-11.92,44.519-17.006,65.478-4.994,12.091,6.93,23.19,6.842,27.627-8.035,2.246-7.533,1.985-15.5,1.962-23.259-.017-6.669.957-13.845,6.1-18.708,6.612-6.243,15.232-4.281,23.2-5.544,8.275-1.313,12.674-6.715,18.335-12.321,7.057-6.988,25.052-28,35.912-22.256.146.077.271-.142.129-.208-11.654-6.164-30.349,16.44-37.16,23.23-2.961,2.947-6.062,6.732-9.686,8.9-6.1,3.648-13.019,2.256-19.637,3.273-7.334,1.128-12.8,4.437-15.694,11.5-2.728,6.649-1.494,13.924-1.74,20.907a56.86,56.86,0,0,1-1.965,14.433,20.915,20.915,0,0,1-3.938,7.92c-7.346,8.4-15.923,4.139-23.319-.037-16.073-9.075-33.677-8.613-50.779-2.229-18.06,6.74-31.679,18.756-43.343,33.826-14.664,18.937-27.808,38.208-52.236,44.861-21.662,5.9-50.3,3-69.443-9.137-18.291-11.605-23.583-33.456-38.8-47.862-34.748-32.914-83.586,6.549-90.633,44.965-.029.158.208.227.243.067Z" transform="translate(-1.914 -7.925)" fill="#d3de24"/>
        <path id="Path_2566" data-name="Path 2566" d="M16.34,209.506C20.71,187.2,32.7,167.783,53.309,157.1c15.4-7.978,31.689-9.083,45.785,2.162,10,7.978,15.633,18.808,21.7,29.758,7.919,14.3,17.6,25.277,33.227,31.164a98.145,98.145,0,0,0,56.527,3.45c17.6-4.549,31.167-16.055,42.126-30.159,16.457-21.18,30.222-41.881,56.223-52.024a69.065,69.065,0,0,1,34.915-4.836,46.763,46.763,0,0,1,17.431,6.195c3.885,2.312,7.711,5.157,12.279,6.012,13.916,2.612,18.283-12.5,19.219-23.346.926-10.7-3.33-25.329,5.319-33.786,9.067-8.861,23.427-1.544,33.177-9.4C437.063,77.6,441.85,71.21,447.25,66.014c5.346-5.157,18.351-19.609,27.113-14.9.142.077.271-.139.129-.208-9.521-5.119-23.517,11.075-29.146,16.621-4.995,4.913-9.5,11.029-15.148,15.162-9.094,6.659-21.2.778-30.255,7.094-6.256,4.37-7.6,12.155-7.523,19.249.106,9.855,1.13,19.769-2.649,29.183-7.492,18.691-22.786,6.006-34.846,1.059a54.458,54.458,0,0,0-28.6-2.8,89.43,89.43,0,0,0-52.149,28.638c-17.945,19.8-29.344,45.213-55.637,55.663-21.5,8.549-50.942,6.769-71.491-3.954-20.395-10.636-25.238-31.755-38.613-48.609-15.479-19.5-36.911-22.029-58.113-9.762-19.088,11.044-30.055,29.741-34.224,50.983-.031.158.208.225.243.067Z" transform="translate(-1.543 -6.877)" fill="#d7df23"/>
      </g>
    </g>
  </g>
  <rect id="Rectangle_41" data-name="Rectangle 41" width="100" height="20.777" transform="translate(0.142 56.566)" fill="#a2d84c"/>
  <rect id="Rectangle_42" data-name="Rectangle 42" width="100" height="20.777" transform="translate(300.31 55.566)" fill="#a2d84c"/>
</svg>
